# xmcd CD database file
#
# Track frame offsets:
#	150
#	18343
#	44122
#	69341
#	97641
#	121699
#	146262
#	161255
#	183208
#	199771
#	222836
#	249686
#
# Disc length: 3547 seconds
#
# Revision: 0
# Processed by: cddbd v1.5.1PL0 Copyright (c) Steve Scherf et al.
# Submitted via: CDex 1.51
#
DISCID=980dd90c
DTITLE=Jorge Cutello and Roberto Scaglione - On Vacation...
DYEAR=2005
DGENRE=Jazz
TTITLE0=The scene
TTITLE1=Princess on vacation
TTITLE2=Manteca
TTITLE3=I Know
TTITLE4=Sophisticated lady
TTITLE5=Desafinado
TTITLE6=I loves you Porgy/My man has gone now
TTITLE7=Imean you
TTITLE8=Dos gardenias
TTITLE9=With a song in my heart
TTITLE10=Nuages
TTITLE11=Decarísimo
EXTD=YEAR: 2005
EXTT0=
EXTT1=
EXTT2=
EXTT3=
EXTT4=
EXTT5=
EXTT6=
EXTT7=
EXTT8=
EXTT9=
EXTT10=
EXTT11=
PLAYORDER=
